<mxfile host="65bd71144e">
    <diagram id="7zjgKA8MS_3eKIfCgWnL" name="todo">
        <mxGraphModel dx="306" dy="210" grid="1" gridSize="10" guides="1" tooltips="1" connect="1" arrows="1" fold="1" page="1" pageScale="1" pageWidth="850" pageHeight="1100" math="0" shadow="0">
            <root>
                <mxCell id="0"/>
                <mxCell id="1" parent="0"/>
            </root>
        </mxGraphModel>
    </diagram>
    <diagram id="9N1l9-Rv0OHJXNPR-bVx" name="Page-1">
        <mxGraphModel dx="1784" dy="1520" grid="1" gridSize="10" guides="1" tooltips="1" connect="1" arrows="1" fold="1" page="1" pageScale="1" pageWidth="850" pageHeight="1100" math="0" shadow="0">
            <root>
                <mxCell id="0"/>
                <mxCell id="1" parent="0"/>
                <mxCell id="2" value="&lt;h1&gt;&lt;br&gt;&lt;/h1&gt;" style="text;html=1;strokeColor=none;fillColor=none;spacing=5;spacingTop=-20;whiteSpace=wrap;overflow=hidden;rounded=0;" parent="1" vertex="1">
                    <mxGeometry x="-350" y="-170" width="120" height="110" as="geometry"/>
                </mxCell>
                <mxCell id="3" value="User" style="text;html=1;align=center;verticalAlign=middle;resizable=0;points=[];autosize=1;" parent="1" vertex="1">
                    <mxGeometry x="120" y="120" width="40" height="20" as="geometry"/>
                </mxCell>
                <mxCell id="8" value="Book" style="text;html=1;strokeColor=none;fillColor=none;align=center;verticalAlign=middle;whiteSpace=wrap;rounded=0;" parent="1" vertex="1">
                    <mxGeometry x="225" y="130" width="40" height="20" as="geometry"/>
                </mxCell>
                <mxCell id="10" value="Transaction" style="text;html=1;strokeColor=none;fillColor=none;align=center;verticalAlign=middle;whiteSpace=wrap;rounded=0;" parent="1" vertex="1">
                    <mxGeometry x="180" y="200" width="40" height="20" as="geometry"/>
                </mxCell>
                <mxCell id="11" value="" style="edgeStyle=entityRelationEdgeStyle;fontSize=12;html=1;endArrow=ERoneToMany;" parent="1" edge="1">
                    <mxGeometry width="100" height="100" relative="1" as="geometry">
                        <mxPoint x="160" y="120" as="sourcePoint"/>
                        <mxPoint x="220" y="140" as="targetPoint"/>
                    </mxGeometry>
                </mxCell>
                <mxCell id="16" value="Book_Copy" style="text;html=1;align=center;verticalAlign=middle;resizable=0;points=[];autosize=1;strokeColor=none;fillColor=none;" parent="1" vertex="1">
                    <mxGeometry x="270" y="170" width="90" height="30" as="geometry"/>
                </mxCell>
                <mxCell id="17" value="" style="edgeStyle=none;orthogonalLoop=1;jettySize=auto;html=1;exitX=0.357;exitY=1.092;exitDx=0;exitDy=0;exitPerimeter=0;" parent="1" source="16" edge="1">
                    <mxGeometry width="100" relative="1" as="geometry">
                        <mxPoint x="270" y="270" as="sourcePoint"/>
                        <mxPoint x="240" y="220" as="targetPoint"/>
                        <Array as="points">
                            <mxPoint x="270" y="210"/>
                        </Array>
                    </mxGeometry>
                </mxCell>
                <mxCell id="22" value="" style="edgeStyle=entityRelationEdgeStyle;fontSize=12;html=1;endArrow=ERoneToMany;" parent="1" edge="1">
                    <mxGeometry width="100" height="100" relative="1" as="geometry">
                        <mxPoint x="270" y="140" as="sourcePoint"/>
                        <mxPoint x="280" y="180" as="targetPoint"/>
                    </mxGeometry>
                </mxCell>
                <mxCell id="23" value="" style="edgeStyle=entityRelationEdgeStyle;fontSize=12;html=1;endArrow=ERoneToMany;" parent="1" edge="1">
                    <mxGeometry width="100" height="100" relative="1" as="geometry">
                        <mxPoint x="140" y="150" as="sourcePoint"/>
                        <mxPoint x="170" y="190" as="targetPoint"/>
                    </mxGeometry>
                </mxCell>
                <mxCell id="DH9IJR_VyjljVEALg6_W-23" value="" style="edgeStyle=entityRelationEdgeStyle;fontSize=12;html=1;endArrow=ERoneToMany;" parent="1" edge="1">
                    <mxGeometry width="100" height="100" relative="1" as="geometry">
                        <mxPoint x="240" y="60" as="sourcePoint"/>
                        <mxPoint x="300" y="60" as="targetPoint"/>
                    </mxGeometry>
                </mxCell>
                <mxCell id="DH9IJR_VyjljVEALg6_W-24" value="One to Many" style="text;html=1;align=center;verticalAlign=middle;resizable=0;points=[];autosize=1;strokeColor=none;fillColor=none;" parent="1" vertex="1">
                    <mxGeometry x="150" y="40" width="90" height="30" as="geometry"/>
                </mxCell>
                <mxCell id="1Mw1Z56ddDV4vzBhFawb-23" value="" style="edgeStyle=none;orthogonalLoop=1;jettySize=auto;html=1;" parent="1" edge="1">
                    <mxGeometry width="100" relative="1" as="geometry">
                        <mxPoint x="240" y="37" as="sourcePoint"/>
                        <mxPoint x="300" y="37" as="targetPoint"/>
                        <Array as="points"/>
                    </mxGeometry>
                </mxCell>
                <mxCell id="1Mw1Z56ddDV4vzBhFawb-31" value="Product" style="text;html=1;strokeColor=none;fillColor=none;align=center;verticalAlign=middle;whiteSpace=wrap;rounded=0;" parent="1" vertex="1">
                    <mxGeometry x="235" y="340" width="40" height="20" as="geometry"/>
                </mxCell>
                <mxCell id="1Mw1Z56ddDV4vzBhFawb-32" value="Order" style="text;html=1;strokeColor=none;fillColor=none;align=center;verticalAlign=middle;whiteSpace=wrap;rounded=0;" parent="1" vertex="1">
                    <mxGeometry x="190" y="410" width="40" height="20" as="geometry"/>
                </mxCell>
                <mxCell id="1Mw1Z56ddDV4vzBhFawb-33" value="" style="edgeStyle=entityRelationEdgeStyle;fontSize=12;html=1;endArrow=ERoneToMany;" parent="1" edge="1">
                    <mxGeometry width="100" height="100" relative="1" as="geometry">
                        <mxPoint x="170" y="330" as="sourcePoint"/>
                        <mxPoint x="230" y="350" as="targetPoint"/>
                    </mxGeometry>
                </mxCell>
                <mxCell id="1Mw1Z56ddDV4vzBhFawb-34" value="Product_Copy" style="text;html=1;align=center;verticalAlign=middle;resizable=0;points=[];autosize=1;strokeColor=none;fillColor=none;" parent="1" vertex="1">
                    <mxGeometry x="290" y="380" width="100" height="30" as="geometry"/>
                </mxCell>
                <mxCell id="1Mw1Z56ddDV4vzBhFawb-35" value="" style="edgeStyle=none;orthogonalLoop=1;jettySize=auto;html=1;exitX=0.357;exitY=1.092;exitDx=0;exitDy=0;exitPerimeter=0;" parent="1" source="1Mw1Z56ddDV4vzBhFawb-34" edge="1">
                    <mxGeometry width="100" relative="1" as="geometry">
                        <mxPoint x="280" y="480" as="sourcePoint"/>
                        <mxPoint x="250" y="430" as="targetPoint"/>
                        <Array as="points">
                            <mxPoint x="280" y="420"/>
                        </Array>
                    </mxGeometry>
                </mxCell>
                <mxCell id="1Mw1Z56ddDV4vzBhFawb-36" value="" style="edgeStyle=entityRelationEdgeStyle;fontSize=12;html=1;endArrow=ERoneToMany;" parent="1" edge="1">
                    <mxGeometry width="100" height="100" relative="1" as="geometry">
                        <mxPoint x="280" y="350" as="sourcePoint"/>
                        <mxPoint x="290" y="390" as="targetPoint"/>
                    </mxGeometry>
                </mxCell>
                <mxCell id="1Mw1Z56ddDV4vzBhFawb-37" value="" style="edgeStyle=entityRelationEdgeStyle;fontSize=12;html=1;endArrow=ERoneToMany;" parent="1" edge="1">
                    <mxGeometry width="100" height="100" relative="1" as="geometry">
                        <mxPoint x="150" y="360" as="sourcePoint"/>
                        <mxPoint x="180" y="400" as="targetPoint"/>
                    </mxGeometry>
                </mxCell>
                <mxCell id="1Mw1Z56ddDV4vzBhFawb-38" value="User" style="text;html=1;align=center;verticalAlign=middle;resizable=0;points=[];autosize=1;" parent="1" vertex="1">
                    <mxGeometry x="130" y="340" width="40" height="20" as="geometry"/>
                </mxCell>
            </root>
        </mxGraphModel>
    </diagram>
    <diagram id="tyoSC8dBZouETeTqG6FH" name="Page-2">
        <mxGraphModel dx="1317" dy="1310" grid="1" gridSize="10" guides="1" tooltips="1" connect="1" arrows="1" fold="1" page="1" pageScale="1" pageWidth="850" pageHeight="1100" math="0" shadow="0">
            <root>
                <mxCell id="0"/>
                <mxCell id="1" parent="0"/>
                <mxCell id="EFSg0eJwYXkwYlfm5f4i-1" value="" style="whiteSpace=wrap;html=1;aspect=fixed;" parent="1" vertex="1">
                    <mxGeometry x="30" y="100" width="80" height="80" as="geometry"/>
                </mxCell>
                <mxCell id="EFSg0eJwYXkwYlfm5f4i-3" value="" style="whiteSpace=wrap;html=1;aspect=fixed;" parent="1" vertex="1">
                    <mxGeometry x="140" y="100" width="80" height="80" as="geometry"/>
                </mxCell>
                <mxCell id="EFSg0eJwYXkwYlfm5f4i-4" value="" style="whiteSpace=wrap;html=1;aspect=fixed;" parent="1" vertex="1">
                    <mxGeometry x="240" y="100" width="80" height="80" as="geometry"/>
                </mxCell>
                <mxCell id="EFSg0eJwYXkwYlfm5f4i-6" value="" style="whiteSpace=wrap;html=1;aspect=fixed;" parent="1" vertex="1">
                    <mxGeometry x="240" y="-20" width="80" height="80" as="geometry"/>
                </mxCell>
                <mxCell id="EFSg0eJwYXkwYlfm5f4i-7" value="cart" style="text;html=1;strokeColor=none;fillColor=none;align=center;verticalAlign=middle;whiteSpace=wrap;rounded=0;" parent="1" vertex="1">
                    <mxGeometry x="250" y="190" width="60" height="30" as="geometry"/>
                </mxCell>
                <mxCell id="EFSg0eJwYXkwYlfm5f4i-8" value="books" style="text;html=1;align=center;verticalAlign=middle;resizable=0;points=[];autosize=1;strokeColor=none;fillColor=none;" parent="1" vertex="1">
                    <mxGeometry x="40" y="195" width="60" height="30" as="geometry"/>
                </mxCell>
                <mxCell id="EFSg0eJwYXkwYlfm5f4i-9" value="authenticate" style="text;html=1;align=center;verticalAlign=middle;resizable=0;points=[];autosize=1;strokeColor=none;fillColor=none;" parent="1" vertex="1">
                    <mxGeometry x="125" y="195" width="90" height="30" as="geometry"/>
                </mxCell>
                <mxCell id="EFSg0eJwYXkwYlfm5f4i-10" value="" style="edgeStyle=none;orthogonalLoop=1;jettySize=auto;html=1;" parent="1" edge="1">
                    <mxGeometry width="100" relative="1" as="geometry">
                        <mxPoint x="150" y="230" as="sourcePoint"/>
                        <mxPoint x="130" y="250" as="targetPoint"/>
                        <Array as="points"/>
                    </mxGeometry>
                </mxCell>
                <mxCell id="EFSg0eJwYXkwYlfm5f4i-11" value="" style="edgeStyle=none;orthogonalLoop=1;jettySize=auto;html=1;" parent="1" edge="1">
                    <mxGeometry width="100" relative="1" as="geometry">
                        <mxPoint x="210" y="230" as="sourcePoint"/>
                        <mxPoint x="220" y="250" as="targetPoint"/>
                        <Array as="points"/>
                    </mxGeometry>
                </mxCell>
                <mxCell id="EFSg0eJwYXkwYlfm5f4i-12" value="register" style="text;html=1;strokeColor=none;fillColor=none;align=center;verticalAlign=middle;whiteSpace=wrap;rounded=0;" parent="1" vertex="1">
                    <mxGeometry x="80" y="250" width="60" height="30" as="geometry"/>
                </mxCell>
                <mxCell id="EFSg0eJwYXkwYlfm5f4i-13" value="login" style="text;html=1;align=center;verticalAlign=middle;resizable=0;points=[];autosize=1;strokeColor=none;fillColor=none;" parent="1" vertex="1">
                    <mxGeometry x="200" y="250" width="50" height="30" as="geometry"/>
                </mxCell>
                <mxCell id="EFSg0eJwYXkwYlfm5f4i-14" value="instant" style="text;html=1;align=center;verticalAlign=middle;resizable=0;points=[];autosize=1;strokeColor=none;fillColor=none;" parent="1" vertex="1">
                    <mxGeometry x="120" y="295" width="60" height="30" as="geometry"/>
                </mxCell>
                <mxCell id="X2CSO_5QhmQDsnIo27OP-1" value="Text" style="text;html=1;align=center;verticalAlign=middle;resizable=0;points=[];autosize=1;strokeColor=none;fillColor=none;" parent="1" vertex="1">
                    <mxGeometry x="215" y="295" width="50" height="30" as="geometry"/>
                </mxCell>
                <mxCell id="X2CSO_5QhmQDsnIo27OP-2" value="send both forms&amp;nbsp;" style="text;html=1;align=center;verticalAlign=middle;resizable=0;points=[];autosize=1;strokeColor=none;fillColor=none;" parent="1" vertex="1">
                    <mxGeometry x="15" y="295" width="110" height="30" as="geometry"/>
                </mxCell>
                <mxCell id="X2CSO_5QhmQDsnIo27OP-3" value="if the&amp;nbsp;" style="text;html=1;align=center;verticalAlign=middle;resizable=0;points=[];autosize=1;strokeColor=none;fillColor=none;" parent="1" vertex="1">
                    <mxGeometry x="140" y="265" width="50" height="30" as="geometry"/>
                </mxCell>
                <mxCell id="X2CSO_5QhmQDsnIo27OP-6" value="&lt;div&gt;&amp;nbsp; &amp;nbsp;&lt;/div&gt;&lt;div&gt;reg = false&amp;nbsp;&lt;/div&gt;&lt;div&gt;if they clicked the registration get then set reg to tr&lt;/div&gt;&lt;div&gt;if current_user.is_authenticated:&lt;/div&gt;&lt;div&gt;&amp;nbsp; &amp;nbsp; &amp;nbsp; &amp;nbsp; return redirect(url_for('index'))&lt;/div&gt;&lt;div&gt;&amp;nbsp; &amp;nbsp; form = LoginForm()&lt;/div&gt;&lt;div&gt;&amp;nbsp; &amp;nbsp; if request.method == 'POST':&lt;/div&gt;&lt;div&gt;&amp;nbsp; &amp;nbsp; &amp;nbsp; &amp;nbsp; if form.validate_on_submit():&lt;/div&gt;&lt;div&gt;&amp;nbsp; &amp;nbsp; &amp;nbsp; &amp;nbsp; &amp;nbsp; &amp;nbsp; user = User.query.filter_by(name=form.username.data).first()&lt;/div&gt;&lt;div&gt;&amp;nbsp; &amp;nbsp; &amp;nbsp; &amp;nbsp; &amp;nbsp; &amp;nbsp; if user and (user.password == form.password.data):&lt;/div&gt;&lt;div&gt;&amp;nbsp; &amp;nbsp; &amp;nbsp; &amp;nbsp; &amp;nbsp; &amp;nbsp; &amp;nbsp; &amp;nbsp; login_user(user, remember=form.remember.data)&lt;/div&gt;&lt;div&gt;&amp;nbsp; &amp;nbsp; &amp;nbsp; &amp;nbsp; &amp;nbsp; &amp;nbsp; &amp;nbsp; &amp;nbsp; print(current_user.name)&lt;/div&gt;&lt;div&gt;&amp;nbsp; &amp;nbsp; &amp;nbsp; &amp;nbsp; &amp;nbsp; &amp;nbsp; &amp;nbsp; &amp;nbsp; flash(&quot;You are now logged in&quot;, 'success')&lt;/div&gt;&lt;div&gt;&amp;nbsp; &amp;nbsp; &amp;nbsp; &amp;nbsp; &amp;nbsp; &amp;nbsp; &amp;nbsp; &amp;nbsp; return redirect(url_for('index'))&lt;/div&gt;&lt;div&gt;&amp;nbsp; &amp;nbsp; &amp;nbsp; &amp;nbsp; &amp;nbsp; &amp;nbsp; else:&lt;/div&gt;&lt;div&gt;&amp;nbsp; &amp;nbsp; &amp;nbsp; &amp;nbsp; &amp;nbsp; &amp;nbsp; &amp;nbsp; &amp;nbsp; flash(&quot;That username could not be found/password/username are incorrect&quot;, 'error')&lt;/div&gt;" style="text;html=1;align=center;verticalAlign=middle;resizable=0;points=[];autosize=1;strokeColor=none;fillColor=none;" parent="1" vertex="1">
                    <mxGeometry x="-35" y="330" width="520" height="240" as="geometry"/>
                </mxCell>
                <mxCell id="_rU1YSYKr1hPkGxGh04u-1" value="user profile" style="text;html=1;align=center;verticalAlign=middle;resizable=0;points=[];autosize=1;strokeColor=none;fillColor=none;" parent="1" vertex="1">
                    <mxGeometry x="240" y="-65" width="80" height="30" as="geometry"/>
                </mxCell>
            </root>
        </mxGraphModel>
    </diagram>
    <diagram id="BoZ3fnQf4W7eRA1TXFOD" name="uml">
        <mxGraphModel dx="467" dy="210" grid="1" gridSize="10" guides="1" tooltips="1" connect="1" arrows="1" fold="1" page="1" pageScale="1" pageWidth="850" pageHeight="1100" math="0" shadow="0">
            <root>
                <mxCell id="0"/>
                <mxCell id="1" parent="0"/>
                <mxCell id="vf5ipjyGkahRjr8aGSlr-1" value="Product" style="text;html=1;strokeColor=none;fillColor=none;align=center;verticalAlign=middle;whiteSpace=wrap;rounded=0;" parent="1" vertex="1">
                    <mxGeometry x="210" y="290" width="40" height="20" as="geometry"/>
                </mxCell>
                <mxCell id="vf5ipjyGkahRjr8aGSlr-2" value="Order" style="text;html=1;strokeColor=none;fillColor=none;align=center;verticalAlign=middle;whiteSpace=wrap;rounded=0;" parent="1" vertex="1">
                    <mxGeometry x="320" y="430" width="40" height="20" as="geometry"/>
                </mxCell>
                <mxCell id="vf5ipjyGkahRjr8aGSlr-3" value="" style="edgeStyle=entityRelationEdgeStyle;fontSize=12;html=1;endArrow=ERoneToMany;" parent="1" edge="1">
                    <mxGeometry width="100" height="100" relative="1" as="geometry">
                        <mxPoint x="140" y="300" as="sourcePoint"/>
                        <mxPoint x="190" y="310" as="targetPoint"/>
                    </mxGeometry>
                </mxCell>
                <mxCell id="vf5ipjyGkahRjr8aGSlr-4" value="Product_Copy" style="text;html=1;align=center;verticalAlign=middle;resizable=0;points=[];autosize=1;strokeColor=none;fillColor=none;" parent="1" vertex="1">
                    <mxGeometry x="320" y="285" width="100" height="30" as="geometry"/>
                </mxCell>
                <mxCell id="vf5ipjyGkahRjr8aGSlr-5" value="" style="edgeStyle=none;orthogonalLoop=1;jettySize=auto;html=1;" parent="1" edge="1">
                    <mxGeometry width="100" relative="1" as="geometry">
                        <mxPoint x="410" y="330" as="sourcePoint"/>
                        <mxPoint x="385" y="420" as="targetPoint"/>
                        <Array as="points">
                            <mxPoint x="385" y="410"/>
                        </Array>
                    </mxGeometry>
                </mxCell>
                <mxCell id="vf5ipjyGkahRjr8aGSlr-6" value="" style="edgeStyle=entityRelationEdgeStyle;fontSize=12;html=1;endArrow=ERoneToMany;" parent="1" edge="1">
                    <mxGeometry width="100" height="100" relative="1" as="geometry">
                        <mxPoint x="280" y="300" as="sourcePoint"/>
                        <mxPoint x="290" y="340" as="targetPoint"/>
                    </mxGeometry>
                </mxCell>
                <mxCell id="vf5ipjyGkahRjr8aGSlr-7" value="" style="edgeStyle=entityRelationEdgeStyle;fontSize=12;html=1;endArrow=ERoneToMany;" parent="1" edge="1">
                    <mxGeometry width="100" height="100" relative="1" as="geometry">
                        <mxPoint x="150" y="360" as="sourcePoint"/>
                        <mxPoint x="180" y="400" as="targetPoint"/>
                    </mxGeometry>
                </mxCell>
                <mxCell id="vf5ipjyGkahRjr8aGSlr-8" value="User" style="text;html=1;align=center;verticalAlign=middle;resizable=0;points=[];autosize=1;strokeColor=none;fillColor=none;" parent="1" vertex="1">
                    <mxGeometry x="70" y="285" width="50" height="30" as="geometry"/>
                </mxCell>
                <mxCell id="vf5ipjyGkahRjr8aGSlr-9" value="Text" style="text;html=1;align=center;verticalAlign=middle;resizable=0;points=[];autosize=1;strokeColor=none;fillColor=none;" parent="1" vertex="1">
                    <mxGeometry x="70" y="315" width="50" height="30" as="geometry"/>
                </mxCell>
            </root>
        </mxGraphModel>
    </diagram>
    <diagram id="_CfLdWyrhMvMnVElO3jB" name="git">
        <mxGraphModel dx="467" dy="210" grid="1" gridSize="10" guides="1" tooltips="1" connect="1" arrows="1" fold="1" page="1" pageScale="1" pageWidth="850" pageHeight="1100" math="0" shadow="0">
            <root>
                <mxCell id="0"/>
                <mxCell id="1" parent="0"/>
                <mxCell id="F-ON0PPfnbk2WGwzQggJ-1" value="" style="edgeStyle=none;orthogonalLoop=1;jettySize=auto;html=1;" parent="1" edge="1">
                    <mxGeometry width="100" relative="1" as="geometry">
                        <mxPoint x="90" y="240" as="sourcePoint"/>
                        <mxPoint x="180" y="240" as="targetPoint"/>
                        <Array as="points">
                            <mxPoint x="130" y="240"/>
                        </Array>
                    </mxGeometry>
                </mxCell>
            </root>
        </mxGraphModel>
    </diagram>
    <diagram id="Wrfd3QJbvJJ-4eJFVANM" name="Page-5">
        <mxGraphModel dx="467" dy="210" grid="1" gridSize="10" guides="1" tooltips="1" connect="1" arrows="1" fold="1" page="1" pageScale="1" pageWidth="850" pageHeight="1100" math="0" shadow="0">
            <root>
                <mxCell id="0"/>
                <mxCell id="1" parent="0"/>
            </root>
        </mxGraphModel>
    </diagram>
    <diagram id="TSgbpE4kDvsABYq37ec-" name="features">
        <mxGraphModel dx="1317" dy="1310" grid="1" gridSize="10" guides="1" tooltips="1" connect="1" arrows="1" fold="1" page="1" pageScale="1" pageWidth="850" pageHeight="1100" math="0" shadow="0">
            <root>
                <mxCell id="0"/>
                <mxCell id="1" parent="0"/>
                <mxCell id="0CFtA1FmLCldDXXiNO_x-1" value="&lt;div style=&quot;color: rgb(212, 212, 212); background-color: rgb(30, 30, 30); font-family: Consolas, &amp;quot;Courier New&amp;quot;, monospace; font-size: 14px; line-height: 19px;&quot;&gt;&lt;div&gt;Feature List:&lt;/div&gt;&lt;br&gt;&lt;div&gt;Book Browsing and Sorting Phillip&lt;/div&gt;&lt;div&gt;&amp;nbsp; &amp;nbsp; []browse books by genre with filter &lt;/div&gt;&lt;div&gt;&amp;nbsp; &amp;nbsp; []t0p sellers in book store filter &lt;/div&gt;&lt;div&gt;&amp;nbsp; &amp;nbsp; []book rating filter &lt;/div&gt;&lt;div&gt;&amp;nbsp; &amp;nbsp; []books pagination to 10 or 20 filter &lt;/div&gt;&lt;div&gt;&amp;nbsp; &amp;nbsp; []sort by book title &lt;/div&gt;&lt;div&gt;&amp;nbsp; &amp;nbsp; []sort by book author &lt;/div&gt;&lt;div&gt;&amp;nbsp; &amp;nbsp; []sort by book price &lt;/div&gt;&lt;div&gt;&amp;nbsp; &amp;nbsp; []sort by book rating &lt;/div&gt;&lt;div&gt;&amp;nbsp; &amp;nbsp; []sort by book release date&lt;/div&gt;&lt;br&gt;&lt;div&gt;Profile Managment Gustavo&lt;/div&gt;&lt;div&gt;&amp;nbsp; &amp;nbsp; [&lt;span style=&quot;color: #ce9178;&quot;&gt;x&lt;/span&gt;]login &lt;/div&gt;&lt;div&gt;&amp;nbsp; &amp;nbsp; [&lt;span style=&quot;color: #ce9178;&quot;&gt;x&lt;/span&gt;]registration &amp;nbsp;&lt;/div&gt;&lt;div&gt;&amp;nbsp; &amp;nbsp; [&lt;span style=&quot;color: #ce9178;&quot;&gt;x&lt;/span&gt;] logout &lt;/div&gt;&lt;div&gt;&amp;nbsp; &amp;nbsp; [] users can manage id and passwords &lt;/div&gt;&lt;div&gt;&amp;nbsp; &amp;nbsp; [] manage name &lt;/div&gt;&lt;div&gt;&amp;nbsp; &amp;nbsp; [] manage email &lt;/div&gt;&lt;div&gt;&amp;nbsp; &amp;nbsp; [] manage home address &lt;/div&gt;&lt;div&gt;&amp;nbsp; &amp;nbsp; [] add to shopping cart from books page &lt;/div&gt;&lt;div&gt;&amp;nbsp; &amp;nbsp; [] books images to all books page &lt;/div&gt;&lt;div&gt;&amp;nbsp; &amp;nbsp; [] comments &lt;/div&gt;&lt;div&gt;&amp;nbsp; &amp;nbsp; [] validation auth &lt;/div&gt;&lt;div&gt;&amp;nbsp; &amp;nbsp; [] physical address &lt;/div&gt;&lt;div&gt;&amp;nbsp; &amp;nbsp; []email address &lt;/div&gt;&lt;div&gt;&amp;nbsp; &amp;nbsp; []credt card info&lt;/div&gt;&lt;div&gt;&amp;nbsp; &amp;nbsp; []credit card info verification &lt;/div&gt;&lt;div&gt;&amp;nbsp; &amp;nbsp; []passwords &lt;/div&gt;&lt;div&gt;&amp;nbsp; &amp;nbsp; []passwords verification &lt;/div&gt;&lt;div&gt;&amp;nbsp; &amp;nbsp; []credit card info many to many relation &lt;/div&gt;&lt;div&gt;&amp;nbsp; &amp;nbsp; []shipping address many to many relation &lt;/div&gt;&lt;div&gt;&amp;nbsp; &amp;nbsp; []add nickname for book rating and commenting to the db &lt;/div&gt;&lt;div&gt;&amp;nbsp; &amp;nbsp; []name &lt;/div&gt;&lt;div&gt;&amp;nbsp; &amp;nbsp; []email address &lt;/div&gt;&lt;div&gt;&amp;nbsp; &amp;nbsp; []home address &lt;/div&gt;&lt;div&gt;&amp;nbsp; &amp;nbsp; []id &lt;/div&gt;&lt;div&gt;&amp;nbsp; &amp;nbsp; []password &lt;/div&gt;&lt;br&gt;&lt;div&gt;Shopping Cart Chester&lt;/div&gt;&lt;div&gt;&amp;nbsp; &amp;nbsp; []Users can easily access their cart from any page, &lt;/div&gt;&lt;div&gt;&amp;nbsp; &amp;nbsp; []view the same information displayed in the book list, &lt;/div&gt;&lt;div&gt;&amp;nbsp; &amp;nbsp; []change the quantity,&lt;/div&gt;&lt;div&gt;&amp;nbsp; &amp;nbsp; []remove it from their cart or save it for later. &lt;/div&gt;&lt;div&gt;&amp;nbsp; &amp;nbsp; []A subtotal for all items in&lt;/div&gt;&lt;div&gt;&amp;nbsp; &amp;nbsp; []their shopping cart should be displayed at the bottom. &lt;/div&gt;&lt;div&gt;&amp;nbsp; &amp;nbsp; []Items saved for later should appear below that.&lt;/div&gt;&lt;br&gt;&lt;div&gt;Book Details Alan&lt;/div&gt;&lt;div&gt;&amp;nbsp; &amp;nbsp; [] Display book name, &lt;/div&gt;&lt;div&gt;&amp;nbsp; &amp;nbsp; [] book cover (which can be enlarged when clicked), &lt;/div&gt;&lt;div&gt;&amp;nbsp; &amp;nbsp; [] author and bio, &lt;/div&gt;&lt;div&gt;&amp;nbsp; &amp;nbsp; [] book description, &lt;/div&gt;&lt;div&gt;&amp;nbsp; &amp;nbsp; [] genre, &lt;/div&gt;&lt;div&gt;&amp;nbsp; &amp;nbsp; [] publishing info&lt;/div&gt;&lt;div&gt;&amp;nbsp; &amp;nbsp; [] (publisher, release date, etc.), &lt;/div&gt;&lt;div&gt;&amp;nbsp; &amp;nbsp; [] book rating, &lt;/div&gt;&lt;div&gt;&amp;nbsp; &amp;nbsp; [] and comments. &lt;/div&gt;&lt;div&gt;&amp;nbsp; &amp;nbsp; [] Hyperlink author’s name to a list of other books by the same author.&lt;/div&gt;&lt;div&gt;&amp;nbsp; &amp;nbsp; [] all books &lt;/div&gt;&lt;br&gt;&lt;div&gt;Book Rating and Commenting Marcos&lt;/div&gt;&lt;div&gt;&amp;nbsp; &amp;nbsp; []For Rating: Use a five-star rating system. &lt;/div&gt;&lt;div&gt;&amp;nbsp; &amp;nbsp; []Users can only rate a book if they’ve purchased it, &lt;/div&gt;&lt;div&gt;&amp;nbsp; &amp;nbsp; []and may select whether they show their nickname(defined in their profile) or []remain anonymous. &lt;/div&gt;&lt;div&gt;&amp;nbsp; &amp;nbsp; []For Commenting: A single comment should be limited to the number of&lt;/div&gt;&lt;div&gt;&amp;nbsp; &amp;nbsp; []characters, &lt;/div&gt;&lt;div&gt;&amp;nbsp; &amp;nbsp; []which can fit within half the browser window (so that there&lt;/div&gt;&lt;div&gt;&amp;nbsp; &amp;nbsp; []are at least two comments which can appear at the same time). &lt;/div&gt;&lt;div&gt;&amp;nbsp; &amp;nbsp; []Users can only comment on a book if they’ve purchased it, &lt;/div&gt;&lt;div&gt;&amp;nbsp; &amp;nbsp; []and may select whether they show their nickname (defined in their profile) or &lt;/div&gt;&lt;div&gt;&amp;nbsp; &amp;nbsp; []remain anonymous.&lt;/div&gt;&lt;/div&gt;" style="text;html=1;align=center;verticalAlign=middle;resizable=0;points=[];autosize=1;strokeColor=none;fillColor=none;" parent="1" vertex="1">
                    <mxGeometry x="-150" y="-350" width="810" height="1400" as="geometry"/>
                </mxCell>
            </root>
        </mxGraphModel>
    </diagram>
</mxfile>